<svg width="80" height="80" fill="none" xmlns="http://www.w3.org/2000/svg">
    <path d="M50.34 13.912v5.913m5.913 0h-6.45a4.3 4.3 0 00-4.3 4.3V25.2a4.3 4.3 0 004.3 4.3h2.687m-6.987 8.6h7.525a4.3 4.3 0 000-8.6h-2.15m0 9.675v4.838M23.878 60h7.042a3.958 3.958 0 00.437-7.891l-.98-.109c-4-1-5.957-2.558-7-6m5.5 14.5v4m-8-33.5c-18 6.5-19 33.5 0 40.5 10.5 3 24 0 28-12.5m23.5-29.5c0 11.874-9.625 21.5-21.5 21.5-11.874 0-21.5-9.626-21.5-21.5S39.004 8 50.878 8c11.875 0 21.5 9.626 21.5 21.5z" stroke="#B40101" stroke-width="3" stroke-linecap="round" stroke-linejoin="round"/>
</svg>
