<svg width="80" height="80" fill="none" xmlns="http://www.w3.org/2000/svg">
    <path d="M56 68v1.5h1.5V68H56zM7.5 49a1.5 1.5 0 000 3v-3zM34 59a1.5 1.5 0 003 0h-3zM8.5 45.5a1.5 1.5 0 00-3 0h3zm-3 28a1.5 1.5 0 003 0h-3zm49.5-44l-.65 1.351.625.301.634-.282-.61-1.37zm0 8l.632-1.36-.67-.312-.654.34L55 37.5zM16 6V4.5A1.5 1.5 0 0014.5 6H16zm57.5 0H75a1.5 1.5 0 00-1.5-1.5V6zm0 41.5V49a1.5 1.5 0 001.5-1.5h-1.5zm-28-1.5a1.5 1.5 0 000 3v-3zm-31-6a1.5 1.5 0 003 0h-3zm9.5-9a1.5 1.5 0 000 3v-3zm8.5 3a1.5 1.5 0 000-3v3zm-8.442 26.999c11.69-.453 19.476-.435 24.334.686 2.405.556 3.892 1.34 4.785 2.297.856.918 1.323 2.163 1.323 4.018h3c0-2.395-.623-4.45-2.13-6.065-1.47-1.575-3.618-2.553-6.303-3.173-5.323-1.229-13.537-1.21-25.125-.76l.116 2.997zM7.5 69.5H56v-3H7.5v3zm0-17.5c3.763 0 7.457-.157 10.731-.219 3.323-.062 6.247-.027 8.677.328 2.445.358 4.191 1.015 5.32 2.035C33.299 55.11 34 56.57 34 59h3c0-3.07-.922-5.422-2.76-7.082-1.777-1.604-4.218-2.385-6.898-2.777-2.695-.395-5.833-.422-9.167-.36-3.382.064-6.938.219-10.675.219v3zm-2-6.5v28h3v-28h-3zm50.109-14.63c3.091-1.373 5.128-1.104 6.316-.432 1.21.684 1.864 1.959 1.888 3.276.023 1.313-.58 2.505-1.715 3.111-1.144.611-3.209.827-6.466-.686l-1.264 2.721c3.742 1.738 6.865 1.828 9.143.611 2.287-1.221 3.34-3.561 3.301-5.81-.04-2.245-1.165-4.564-3.41-5.834-2.265-1.281-5.353-1.324-9.011.302l1.218 2.741zm.042-2.722c-3.624-1.744-6.664-1.823-8.869-.517-2.187 1.296-3.108 3.696-3.031 5.92.077 2.224 1.153 4.563 3.324 5.824 2.22 1.29 5.196 1.235 8.617-.544l-1.384-2.662c-2.829 1.47-4.666 1.228-5.727.612-1.11-.645-1.784-1.931-1.832-3.333-.048-1.4.531-2.625 1.562-3.236 1.014-.6 2.912-.866 6.038.64l1.302-2.704zM16 7.5h57.5v-3H16v3zM73.5 46h-28v3h28v-3zm-56-6V19h-3v21h3zm0-21V6h-3v13h3zM72 6v13h3V6h-3zm0 13v28.5h3V19h-3zm-56 1.5h57.5v-3H16v3zM24 34h8.5v-3H24v3z" fill="#B40101"/>
</svg>
