<svg width="80" height="80" fill="none" xmlns="http://www.w3.org/2000/svg">
    <path d="M16.5 51.5l1.496-.112L17.892 50H16.5v1.5zm1.5 20l-1.496.112.104 1.388H18v-1.5zm12.5 0V73h1.394l.102-1.39-1.496-.11zM32 51v-1.5h-1.394l-.102 1.39L32 51zm8-36.5a1.5 1.5 0 000 3v-3zM71.5 16H73a1.5 1.5 0 00-1.5-1.5V16zm0 35.5V53a1.5 1.5 0 001.5-1.5h-1.5zM48 50a1.5 1.5 0 000 3v-3zm7-41a1.5 1.5 0 00-3 0h3zm-3 6.5a1.5 1.5 0 003 0h-3zM55 52a1.5 1.5 0 00-3 0h3zm-1.5 13.5l.878 1.216A1.5 1.5 0 0055 65.5h-1.5zm-9.878 5.284a1.5 1.5 0 101.756 2.432l-1.756-2.432zm11.354-5.923a1.5 1.5 0 00-1.952 2.278l1.952-2.278zm5.048 8.278a1.5 1.5 0 001.952-2.278l-1.952 2.278zm-16.085-39.2a1.5 1.5 0 002.122 2.122l-2.122-2.122zM51.5 28.5l1.102-1.017a1.5 1.5 0 00-2.163-.044L51.5 28.5zm6 6.5l-1.102 1.017a1.5 1.5 0 002.194.011L57.5 35zm9.092-7.472a1.5 1.5 0 10-2.184-2.056l2.184 2.056zM33 18a8.5 8.5 0 01-8.5 8.5v3C30.851 29.5 36 24.351 36 18h-3zm-8.5 8.5A8.5 8.5 0 0116 18h-3c0 6.351 5.149 11.5 11.5 11.5v-3zM16 18a8.5 8.5 0 018.5-8.5v-3C18.149 6.5 13 11.649 13 18h3zm8.5-8.5A8.5 8.5 0 0133 18h3c0-6.351-5.149-11.5-11.5-11.5v3zM12 51.5c0-12.274 6.534-18.301 12.318-18.564 2.917-.133 5.901 1.139 8.202 4.088 2.317 2.97 3.98 7.707 3.98 14.476h3c0-7.231-1.775-12.682-4.614-16.321-2.855-3.66-6.747-5.42-10.704-5.24C16.216 30.301 9 38.274 9 51.5h3zM9 53h7.5v-3H9v3zm6.004-1.388l1.5 20 2.992-.224-1.5-20-2.992.224zM18 73h12.5v-3H18v3zm13.996-1.39l1.5-20.5-2.992-.22-1.5 20.5 2.992.22zM32 52.5h7.5v-3H32v3zm8-35h31.5v-3H40v3zM70 16v35.5h3V16h-3zm1.5 34H48v3h23.5v-3zM52 9v6.5h3V9h-3zm0 43v13.5h3V52h-3zm.622 12.284l-9 6.5 1.756 2.432 9-6.5-1.756-2.432zm.402 2.855l7 6 1.952-2.278-7-6-1.952 2.278zM46.06 36.06l6.5-6.5-2.122-2.122-6.5 6.5 2.122 2.122zm4.337-6.544l6 6.5 2.204-2.034-6-6.5-2.204 2.034zm8.194 6.511l8-8.5-2.184-2.056-8 8.5 2.184 2.056z" fill="#B40101"/>
</svg>
