<svg width="403" height="276" fill="none" xmlns="http://www.w3.org/2000/svg">
    <path d="M30.886 214.5l-.403.296.02.029.026.025.357-.35zm138-99l-.186.464.026.011.027.007.133-.482zm56.63-114.164c.581.64 1.159 1.279 1.733 1.915l.742-.67a734.387 734.387 0 00-1.735-1.917l-.74.672zm5.134 5.704c1.119 1.255 2.223 2.5 3.313 3.737l.75-.66a764.118 764.118 0 00-3.317-3.743l-.746.666zm6.682 7.59a697.266 697.266 0 013.298 3.824l.759-.65a698.906 698.906 0 00-3.302-3.83l-.755.655zm6.554 7.66c1.109 1.316 2.2 2.622 3.272 3.917l.77-.638a609.33 609.33 0 00-3.277-3.924l-.765.644zm6.432 7.768a541.885 541.885 0 013.218 4l.782-.624a515.491 515.491 0 00-3.225-4.007l-.775.63zm6.321 7.938a426.29 426.29 0 013.107 4.035l.796-.605a442.852 442.852 0 00-3.114-4.045l-.789.615zm6.129 8.062a356.12 356.12 0 012.989 4.099l.812-.583a355.645 355.645 0 00-2.998-4.11l-.803.594zm5.895 8.213a275.965 275.965 0 012.858 4.195l.832-.555a276.067 276.067 0 00-2.869-4.21l-.821.57zm5.601 8.39a213.526 213.526 0 012.697 4.329l.855-.519a218.132 218.132 0 00-2.71-4.348l-.842.538zm5.226 8.621a159.298 159.298 0 012.459 4.47l.884-.468a162.09 162.09 0 00-2.475-4.497l-.868.495zm4.739 8.975a110.63 110.63 0 012.065 4.539l.919-.393a111.265 111.265 0 00-2.083-4.58l-.901.434zm3.92 9.239a69.206 69.206 0 011.547 4.807l.963-.27a70.397 70.397 0 00-1.569-4.877l-.941.34zm2.678 9.695c.309 1.724.502 3.376.579 4.955l.999-.048a39.795 39.795 0 00-.594-5.084l-.984.177zm.409 9.908a21.547 21.547 0 01-1.148 4.782l.938.347a22.588 22.588 0 001.202-5.003l-.992-.126zm-3.439 9.123a19.35 19.35 0 01-3.34 3.591l.643.766a20.339 20.339 0 003.511-3.777l-.814-.58zm-7.439 6.344a32.689 32.689 0 01-4.553 1.998l.335.943a33.699 33.699 0 004.692-2.061l-.474-.88zm-9.351 3.391a59.301 59.301 0 01-4.94.924l.144.99a60.86 60.86 0 005.023-.94l-.227-.974zm-9.983 1.484c-1.602.127-3.27.214-5.003.263l.028.999a98.58 98.58 0 005.054-.265l-.079-.997zm-10.007.294c-1.65-.023-3.352-.077-5.107-.164l-.049.999c1.766.087 3.48.142 5.142.165l.014-1zm-10.089-.483c-1.64-.128-3.322-.282-5.045-.46l-.103.994c1.731.18 3.421.334 5.07.463l.078-.997zm-10.062-1.037a270.76 270.76 0 01-5-.679l-.143.989c1.707.248 3.379.475 5.018.682l.125-.992zm-9.999-1.45c-1.633-.266-3.296-.55-4.988-.851l-.175.984c1.697.303 3.364.587 5.002.854l.161-.987zm-9.937-1.77a409.92 409.92 0 01-5.013-.997l-.201.979c1.701.35 3.376.683 5.025 1l.189-.982zm-9.894-2.028a493.55 493.55 0 01-5.022-1.118l-.222.975c1.701.388 3.378.761 5.032 1.12l.212-.977zm-9.874-2.249a548.307 548.307 0 01-4.924-1.194l-.24.971c1.665.411 3.309.81 4.933 1.196l.231-.973zm-9.881-2.441a676.81 676.81 0 01-4.824-1.254l-.255.967c1.629.43 3.239.848 4.832 1.256l.247-.969zm-9.756-2.574a659.14 659.14 0 01-2.507-.685l-.265.964c.841.232 1.678.46 2.51.686l.262-.965zm-2.454-.667c-.798-.318-1.592-.633-2.384-.945l-.366.931c.79.311 1.583.625 2.379.942l.371-.928zm-7.099-2.773a517.38 517.38 0 00-4.646-1.749l-.347.937a515.36 515.36 0 014.636 1.746l.357-.934zm-9.308-3.451a483.559 483.559 0 00-4.785-1.689l-.327.945c1.578.547 3.169 1.109 4.774 1.685l.338-.941zm-9.491-3.29a414.572 414.572 0 00-4.716-1.544l-.305.952c1.554.499 3.122 1.012 4.704 1.54l.317-.948zm-9.556-3.062c-1.599-.49-3.182-.964-4.751-1.423l-.281.96c1.565.457 3.144.93 4.739 1.419l.293-.956zm-9.56-2.79a334.917 334.917 0 00-4.875-1.311l-.252.968c1.603.418 3.223.853 4.86 1.306l.267-.964zm-9.649-2.516a296.937 296.937 0 00-4.938-1.16l-.22.975c1.621.367 3.262.752 4.921 1.157l.237-.972zm-9.818-2.217a258.104 258.104 0 00-4.884-.962l-.184.983c1.602.299 3.223.618 4.865.958l.203-.979zm-9.86-1.84a223.876 223.876 0 00-4.86-.75l-.142.99c1.591.228 3.204.476 4.839.747l.163-.987zm-9.916-1.41c-1.66-.195-3.295-.367-4.905-.514l-.091.996c1.601.146 3.228.317 4.88.512l.116-.993zm-9.973-.906c-1.674-.105-3.32-.182-4.936-.233l-.032 1c1.606.05 3.241.127 4.905.23l.063-.997zm-10.017-.306a131.93 131.93 0 00-4.934.107l.04 1c1.6-.066 3.232-.102 4.897-.107l-.003-1zm-10.015.422c-1.693.142-3.347.32-4.96.53l.13.992c1.597-.21 3.235-.385 4.914-.526l-.084-.996zm-9.922 1.313c-1.694.315-3.339.67-4.935 1.066l.24.97a83.595 83.595 0 014.877-1.052l-.182-.984zm-9.741 2.425a66.551 66.551 0 00-4.733 1.71l.376.926a65.661 65.661 0 014.661-1.683l-.304-.953zm-9.338 3.805a53.076 53.076 0 00-4.378 2.49l.536.844a52.286 52.286 0 014.296-2.443l-.454-.891zm-8.483 5.4a44.596 44.596 0 00-3.771 3.343l.705.709a43.923 43.923 0 013.686-3.268l-.62-.784zm-7.141 7.111a42.009 42.009 0 00-2.896 4.144l.852.522a40.93 40.93 0 012.827-4.045l-.784-.621zm-5.273 8.598a44.723 44.723 0 00-1.844 4.694l.95.313a43.811 43.811 0 011.803-4.589l-.909-.418zm-3.168 9.559a52.923 52.923 0 00-.832 4.979l.993.118c.199-1.667.47-3.295.816-4.884l-.977-.213zm-1.21 10.024a65.607 65.607 0 00.033 5.013l.999-.044a64.594 64.594 0 01-.032-4.936l-1-.033zm.427 10.012c.185 1.639.426 3.301.722 4.985l.985-.173a81.015 81.015 0 01-.713-4.924l-.994.112zm1.735 9.93c.371 1.591.79 3.2 1.254 4.825l.962-.275c-.46-1.61-.875-3.203-1.242-4.777l-.974.227zm2.749 9.628a121.785 121.785 0 001.7 4.735l.934-.357a121.42 121.42 0 01-1.686-4.696l-.948.318zm3.569 9.359c.65 1.528 1.338 3.067 2.062 4.616l.906-.424a143.26 143.26 0 01-2.048-4.583l-.92.391zm4.242 9.087c.748 1.476 1.53 2.96 2.343 4.451l.878-.479a166.511 166.511 0 01-2.33-4.425l-.891.453zm4.799 8.805c.83 1.427 1.69 2.86 2.58 4.299l.85-.525a192.293 192.293 0 01-2.566-4.277l-.864.503zm5.266 8.528c.902 1.382 1.83 2.769 2.785 4.16l.825-.566a213.42 213.42 0 01-2.773-4.141l-.837.547zm5.666 8.258c.493.685.992 1.371 1.497 2.057l.805-.592c-.503-.684-1-1.367-1.49-2.049l-.812.584zm1.543 2.111c.584.597 1.17 1.19 1.755 1.78l.71-.705a364.181 364.181 0 01-1.751-1.775l-.714.7zm5.267 5.272a347.963 347.963 0 003.543 3.425l.69-.724a348.017 348.017 0 01-3.533-3.415l-.7.714zm7.164 6.824a294.345 294.345 0 003.637 3.308l.667-.745a302.044 302.044 0 01-3.625-3.297l-.679.734zm7.375 6.595a266.233 266.233 0 003.747 3.178l.64-.768a272.277 272.277 0 01-3.733-3.166l-.654.756zm7.607 6.328c1.289 1.031 2.58 2.041 3.874 3.032l.608-.794a235.915 235.915 0 01-3.858-3.019l-.624.781zm7.858 6.015c1.333.975 2.67 1.928 4.008 2.86l.57-.821a211.123 211.123 0 01-3.988-2.846l-.59.807zm8.127 5.651c1.38.909 2.761 1.795 4.147 2.657l.528-.849a189.63 189.63 0 01-4.124-2.643l-.55.835zm8.41 5.227c1.427.833 2.858 1.641 4.294 2.423l.478-.878a165.998 165.998 0 01-4.269-2.409l-.504.864zm8.696 4.735c1.477.746 2.959 1.465 4.446 2.157l.421-.907a152.43 152.43 0 01-4.416-2.142l-.45.892zm8.982 4.174c1.524.646 3.054 1.264 4.59 1.852l.358-.934a138.135 138.135 0 01-4.557-1.839l-.391.921zm9.252 3.54c1.566.535 3.139 1.039 4.719 1.512l.287-.958a127.93 127.93 0 01-4.683-1.5l-.323.946zm9.493 2.842c1.601.412 3.208.792 4.823 1.141l.211-.978a122.567 122.567 0 01-4.784-1.132l-.25.969zm9.692 2.088c1.624.283 3.255.532 4.894.749l.132-.991a120.892 120.892 0 01-4.855-.743l-.171.985zm9.828 1.3c1.637.149 3.283.266 4.936.349l.051-.999a121.614 121.614 0 01-4.896-.346l-.091.996zm9.896.5c1.642.017 3.292.002 4.951-.046l-.029-1c-1.646.048-3.283.063-4.912.046l-.01 1zm9.902-.285c1.638-.111 3.284-.253 4.939-.427l-.105-.994c-1.642.173-3.276.314-4.901.423l.067.998zm9.851-1.034c1.625-.23 3.258-.491 4.899-.783l-.175-.984c-1.63.29-3.251.549-4.864.777l.14.99zm9.753-1.73c1.603-.34 3.215-.71 4.835-1.109l-.239-.971c-1.61.397-3.211.764-4.804 1.102l.208.978zm9.618-2.365a170.68 170.68 0 004.752-1.402l-.297-.954c-1.583.491-3.158.956-4.724 1.393l.269.963zm9.463-2.938a186.304 186.304 0 004.65-1.658l-.348-.937c-1.55.575-3.092 1.125-4.625 1.648l.323.947zm9.296-3.45a208.207 208.207 0 004.538-1.878l-.393-.92a201.445 201.445 0 01-4.516 1.87l.371.928zm9.123-3.901a231.305 231.305 0 004.425-2.071l-.433-.901a232.56 232.56 0 01-4.407 2.061l.415.911zm8.886-4.271a260.155 260.155 0 004.387-2.273l-.469-.883c-1.464.776-2.92 1.531-4.37 2.264l.452.892zm8.718-4.619c1.45-.803 2.906-1.626 4.37-2.47l-.499-.866a294.57 294.57 0 01-4.355 2.461l.484.875zm8.57-4.937c1.407-.841 2.82-1.702 4.24-2.581l-.527-.85a324.098 324.098 0 01-4.226 2.573l.513.858zm8.444-5.23a338.044 338.044 0 004.105-2.669l-.55-.834a344.039 344.039 0 01-4.094 2.661l.539.842zm8.248-5.443c1.349-.916 2.704-1.85 4.065-2.8l-.572-.82a381.302 381.302 0 01-4.055 2.793l.562.827zm8.074-5.634a440.617 440.617 0 004.043-2.931l-.592-.806c-1.35.991-2.695 1.965-4.033 2.924l.582.813zm7.998-5.867a488.34 488.34 0 003.91-2.968l-.608-.793a463.665 463.665 0 01-3.902 2.961l.6.8zm7.853-6.025a537.817 537.817 0 003.875-3.066l-.624-.781a535.746 535.746 0 01-3.868 3.06l.617.787zm7.687-6.14a562.33 562.33 0 003.842-3.156l-.638-.77a565.884 565.884 0 01-3.836 3.151l.632.775zm7.667-6.354a566.43 566.43 0 003.713-3.157l-.65-.759a627.997 627.997 0 01-3.708 3.152l.645.764zm7.456-6.389a687.971 687.971 0 003.772-3.309l-.663-.749a614.438 614.438 0 01-3.766 3.303l.657.755zm7.42-6.557a645.568 645.568 0 003.645-3.291l-.672-.74a680.228 680.228 0 01-3.64 3.286l.667.745zm7.318-6.651a771.988 771.988 0 003.658-3.392l-.682-.731a765.908 765.908 0 01-3.654 3.387l.678.736zm7.208-6.725a898.353 898.353 0 003.575-3.397l-.691-.723a829.592 829.592 0 01-3.571 3.393l.687.727zm7.176-6.859c1.178-1.14 2.361-2.29 3.548-3.45l-.699-.715a859.25 859.25 0 01-3.545 3.446l.696.719zm7.029-6.872c1.165-1.15 2.333-2.31 3.505-3.481l-.706-.707a876.583 876.583 0 01-3.502 3.477l.703.711zm7.034-7.021c.59-.595 1.182-1.193 1.774-1.793l-.712-.702-1.772 1.791.71.704z" fill="#FF6060"/>
    <path d="M342.886 130.418l15.692 10.665-3.136 7.428 45.304-34.592-57.86 16.499z" fill="url(#paint0_linear)"/>
    <path d="M370.802 166.979l-5.815-17.909-8.329 1.033 45.263-34.56-31.119 51.436z" fill="url(#paint1_linear)"/>
    <path d="M400.746 113.919l-42.168 27.164-4.119 9.436 10.188-1.488 37.312-33.522.983-2.009-2.196.419z" fill="#980000"/>
    <defs>
        <linearGradient id="paint0_linear" x1="379.5" y1="131" x2="402" y2="114" gradientUnits="userSpaceOnUse">
            <stop stop-color="#B40101"/><stop offset="1" stop-color="#9A0101"/>
        </linearGradient>
        <linearGradient id="paint1_linear" x1="379.5" y1="131" x2="402" y2="114" gradientUnits="userSpaceOnUse">
            <stop stop-color="#B40101"/>
            <stop offset="1" stop-color="#9A0101"/>
        </linearGradient>
    </defs>
</svg>
