<svg width="1600" height="2527" fill="none" viewBox="0 0 1600 2527" preserveAspectRatio="none" xmlns="http://www.w3.org/2000/svg">
    <path fill-rule="evenodd" clip-rule="evenodd" d="M0 1581v-532c193.81-266.033 461.65-289.807 732.113-313.814C1059.95 706.087 1391.64 676.645 1600 215l-1 2312-108.86-208c-161.04-284.31-422.54-302.83-692.548-321.95C501.585 1976.08 183.5 1953.5 0 1581z" fill="url(#paint0_linear)"/>
    <path d="M0 0v1049c10.806-15.05 23.041-29.36 34.658-42.95h.001l.087-.11C186.09 826.645 376.613 775.635 576.35 750.886c41.291-5.504 81.688-9.389 120.355-12.482 11.982-1.086 23.976-2.152 35.975-3.218 9.421-.837 18.864-1.64 28.312-2.445l.008-.001h.005c17.68-1.505 35.378-3.012 52.995-4.74l-.015-.013c267.245-26.231 530.055-76.518 719.375-386.024 22.93-38.275 45.03-80.405 66.58-126.824l.06-.021V0H0z" fill="url(#paint1_linear)"/>
    <defs>
        <linearGradient id="paint0_linear" x1="324" y1="528" x2="636" y2="1040" gradientUnits="userSpaceOnUse">
            <stop stop-color="#F3F3F3"/>
            <stop offset="1" stop-color="#FAFAFA"/>
        </linearGradient>
        <linearGradient id="paint1_linear" x1="1600" y1="119.566" x2="1" y2="119.086" gradientUnits="userSpaceOnUse">
            <stop stop-color="#333"/>
            <stop offset="1" stop-color="#B40101"/>
        </linearGradient>
    </defs>
</svg>
